<svg width="33" height="33" viewBox="0 0 33 33" fill="none" xmlns="http://www.w3.org/2000/svg">
<path d="M16.5 0.693542C16.3564 0.693542 16.2135 0.739072 16.0914 0.831472L0.911368 12.6792C0.627568 12.9036 0.57482 13.3183 0.79922 13.6087C1.02362 13.8925 1.43823 13.9452 1.72863 13.7208L2.64 13.0092V30.36C2.64 30.723 2.937 31.02 3.3 31.02H12.54V19.14H20.46V31.02H29.7C30.063 31.02 30.36 30.723 30.36 30.36V13.0092L31.2714 13.7208C31.3968 13.8132 31.5348 13.86 31.68 13.86C31.878 13.86 32.0688 13.7737 32.2008 13.6087C32.4252 13.3183 32.3724 12.9036 32.0886 12.6792L16.9086 0.831472C16.7865 0.739072 16.6435 0.693542 16.5 0.693542ZM23.1 3.30003V3.99354L27.06 7.08214V3.30003H23.1Z" fill="#2D2D2D"/>
</svg>
