<svg width="25" height="33" viewBox="0 0 25 33" fill="none" xmlns="http://www.w3.org/2000/svg">
<g clip-path="url(#clip0_3_33)">
<path d="M0.90041 0.141539C1.44955 -0.110859 2.09473 -0.0207152 2.55363 0.37241L5.15625 2.60326L7.76016 0.37241C8.34023 -0.124137 9.19102 -0.124137 9.77109 0.37241L12.375 2.60326L14.9789 0.37241C15.559 -0.124137 16.4098 -0.124137 16.9898 0.37241L19.5938 2.60326L22.1977 0.37241C22.6553 -0.0207152 23.2998 -0.110859 23.8477 0.141539C24.3955 0.394002 24.75 0.942949 24.75 1.54688V31.4531C24.75 32.059 24.3955 32.6068 23.8477 32.8582C23.2998 33.1096 22.6553 33.0193 22.1977 32.6262L19.5938 30.3961L16.9898 32.6262C16.4098 33.1225 15.559 33.1225 14.9789 32.6262L12.375 30.3961L9.77109 32.6262C9.19102 33.1225 8.34023 33.1225 7.76016 32.6262L5.15625 30.3961L2.55363 32.6262C2.09473 33.0193 1.44955 33.1096 0.90041 32.8582C0.351656 32.6068 0 32.059 0 31.4531V1.54688C0 0.942949 0.351656 0.393937 0.90041 0.141539ZM6.1875 9.28125C5.61773 9.28125 5.15625 9.74531 5.15625 10.3125C5.15625 10.8797 5.61773 11.3438 6.1875 11.3438H18.5625C19.1297 11.3438 19.5938 10.8797 19.5938 10.3125C19.5938 9.74531 19.1297 9.28125 18.5625 9.28125H6.1875ZM6.1875 23.7188H18.5625C19.1297 23.7188 19.5938 23.2547 19.5938 22.6875C19.5938 22.1203 19.1297 21.6562 18.5625 21.6562H6.1875C5.61773 21.6562 5.15625 22.1203 5.15625 22.6875C5.15625 23.2547 5.61773 23.7188 6.1875 23.7188ZM6.1875 15.4688C5.61773 15.4688 5.15625 15.9328 5.15625 16.5C5.15625 17.0672 5.61773 17.5312 6.1875 17.5312H18.5625C19.1297 17.5312 19.5938 17.0672 19.5938 16.5C19.5938 15.9328 19.1297 15.4688 18.5625 15.4688H6.1875Z" fill="#2D2D2D"/>
</g>
<defs>
<clipPath id="clip0_3_33">
<rect width="24.75" height="33" rx="6" fill="white"/>
</clipPath>
</defs>
</svg>
