<svg width="33" height="33" viewBox="0 0 33 33" fill="none" xmlns="http://www.w3.org/2000/svg">
<path d="M2.0625 11.3438H25.9617L22.2634 15.0421C21.4577 15.8477 21.4577 17.1529 22.2634 17.9586C22.6617 18.3627 23.1902 18.5625 23.7188 18.5625C24.2473 18.5625 24.7745 18.3611 25.1767 17.9583L32.3954 10.7395C33.2011 9.93384 33.2011 8.62866 32.3954 7.823L25.1767 0.604248C24.371 -0.201416 23.0658 -0.201416 22.2602 0.604248C21.4545 1.40991 21.4545 2.71509 22.2602 3.52075L25.9617 7.21875H2.0625C0.922324 7.21875 0 8.14107 0 9.28125C0 10.4214 0.922324 11.3438 2.0625 11.3438ZM30.9375 21.6562H7.04473L10.743 17.9579C11.5487 17.1523 11.5487 15.8471 10.743 15.0414C9.93738 14.2358 8.63221 14.2358 7.82654 15.0414L0.607793 22.2602C-0.197871 23.0658 -0.197871 24.371 0.607793 25.1767L7.82654 32.3954C8.22422 32.8002 8.75273 33 9.28125 33C9.80977 33 10.337 32.7986 10.7392 32.3958C11.5448 31.5901 11.5448 30.2849 10.7392 29.4792L7.04473 25.7812H30.9375C32.0777 25.7812 33 24.8589 33 23.7188C33 22.5786 32.0783 21.6562 30.9375 21.6562Z" fill="#2D2D2D"/>
</svg>
